<svg xmlns="http://www.w3.org/2000/svg" xmlns:xlink="http://www.w3.org/1999/xlink" width="1080" zoomAndPan="magnify" viewBox="0 0 810 809.999993" height="1080" preserveAspectRatio="xMidYMid meet" version="1.0"><defs><g/><clipPath id="d99ae3740c"><rect x="0" width="323" y="0" height="292"/></clipPath></defs><path fill="#005a9c" d="M 405 0 C 181.238281 0 0 181.238281 0 405 C 0 628.761719 181.238281 810 405 810 C 628.761719 810 810 628.761719 810 405 C 810 181.238281 628.761719 0 405 0 Z M 405 729 C 225.988281 729 81 584.011719 81 405 C 81 225.988281 225.988281 81 405 81 C 584.011719 81 729 225.988281 729 405 C 729 584.011719 584.011719 729 405 729 Z M 405 729 " fill-opacity="1" fill-rule="nonzero"/><g transform="matrix(1, 0, 0, 1, 244, 259)"><g clip-path="url(#d99ae3740c)"><g fill="#ffffff" fill-opacity="1"><g transform="translate(0.899762, 229.294193)"><g><path d="M 15.71875 0 L 15.71875 -176.0625 L 69.890625 -176.0625 C 85.367188 -176.0625 99.210938 -172.570312 111.421875 -165.59375 C 123.640625 -158.625 133.171875 -148.707031 140.015625 -135.84375 C 146.867188 -122.988281 150.296875 -108.378906 150.296875 -92.015625 L 150.296875 -83.921875 C 150.296875 -67.554688 146.929688 -53.003906 140.203125 -40.265625 C 133.472656 -27.523438 123.976562 -17.648438 111.71875 -10.640625 C 99.46875 -3.628906 85.644531 -0.0820312 70.25 0 Z M 52 -146.671875 L 52 -29.140625 L 69.53125 -29.140625 C 83.71875 -29.140625 94.554688 -33.773438 102.046875 -43.046875 C 109.546875 -52.316406 113.378906 -65.578125 113.546875 -82.828125 L 113.546875 -92.140625 C 113.546875 -110.035156 109.835938 -123.597656 102.421875 -132.828125 C 95.003906 -142.054688 84.160156 -146.671875 69.890625 -146.671875 Z M 52 -146.671875 "/></g></g></g><g fill="#ffffff" fill-opacity="1"><g transform="translate(159.171708, 229.294193)"><g><path d="M 80.765625 -43.65625 L 120.671875 -176.0625 L 161.0625 -176.0625 L 99.75 0 L 61.90625 0 L 0.84375 -176.0625 L 41.109375 -176.0625 Z M 80.765625 -43.65625 "/></g></g></g></g></g></svg>